<?xml version="1.0" encoding="utf-8"?>
<!-- Generator: Adobe Illustrator 19.2.1, SVG Export Plug-In . SVG Version: 6.00 Build 0)  -->
<svg version="1.1" id="Layer_1" xmlns="http://www.w3.org/2000/svg" xmlns:xlink="http://www.w3.org/1999/xlink" x="0px" y="0px"
	 viewBox="0 0 180.2 193.8" style="enable-background:new 0 0 180.2 193.8;" xml:space="preserve">
<style type="text/css">
	.st0{fill:#34495E;}
	.st1{fill:#2BCC71;}
</style>
<g>
	<path class="st0" d="M142.2,125.9c-3.8,4-5.7,9.1-5.9,14.2l-93.8,18.2c-0.8-4-3-7.8-6.1-11c-2.5-2.5-5.5-4.2-8.9-5.1l17.4-89.6
		c5.3-0.2,10.6-2.3,14.4-6.4c8-8.5,7.8-21.8-0.6-29.9c-8.5-8.3-21.8-8-30.1,0.4c-8,8.5-7.8,21.8,0.6,29.9c1.9,1.9,4,3.2,6.4,4.2
		l-17.6,90.9c-4.2,0.6-8.5,2.8-11.6,6.1c-8,8.5-7.8,21.8,0.6,30.1c8.5,8,21.8,8,29.9-0.4c2.5-2.8,4.2-5.9,5.3-9.3l95.9-18.4
		c1.1,2.3,2.5,4.7,4.7,6.6c8.5,8.3,21.8,8,29.9-0.4c8-8.5,7.8-21.8-0.6-29.9C163.8,117.5,150.5,117.7,142.2,125.9z"/>
	<path class="st1" d="M38.8,144.8c9.1,8.9,9.5,23.3,0.6,32.4c-8.7,9.1-23.3,9.3-32.4,0.4c-9.1-8.9-9.5-23.3-0.6-32.4
		C15.3,136.3,29.7,136.1,38.8,144.8z"/>
	<path class="st1" d="M59.8,16c9.1,8.9,9.5,23.3,0.6,32.4c-8.7,9.1-23.3,9.3-32.4,0.4s-9.5-23.3-0.6-32.4C36.1,7.5,50.7,7.3,59.8,16
		z"/>
	<path class="st1" d="M173.1,124.2c9.1,8.9,9.5,23.3,0.6,32.4c-8.7,9.1-23.3,9.3-32.4,0.4c-9.1-8.9-9.5-23.3-0.6-32.4
		C149.4,115.6,164,115.4,173.1,124.2z"/>
</g>
</svg>
